<svg xmlns="http://www.w3.org/2000/svg" viewBox="0 0 936.84 784.88"><defs><style>.cls-1,.cls-36,.cls-37,.cls-38,.cls-44{fill:#535d6b;}.cls-2,.cls-39{fill:#7c7c7c;}.cls-3{fill:#dfd9cf;}.cls-4{fill:#b2afae;}.cls-5{fill:#5d7842;}.cls-6{fill:#e1d1b5;}.cls-7{fill:#605c53;}.cls-8{fill:#fce6e6;}.cls-9{fill:#f0e0c4;}.cls-10{fill:#b5afa9;}.cls-11,.cls-20,.cls-25,.cls-33{fill:#e6efef;}.cls-11{opacity:0.89;}.cls-12,.cls-26{fill:#acadad;}.cls-13{fill:#77736b;}.cls-14{fill:#e8d6b8;}.cls-15{fill:#bfad90;}.cls-16,.cls-41,.cls-42{fill:#363d44;}.cls-17{fill:#4d6683;}.cls-18{fill:#a09584;}.cls-19{fill:#7ab851;}.cls-20{opacity:0.75;}.cls-21{fill:#a78957;}.cls-22{fill:#7d6542;}.cls-23{fill:#609136;}.cls-24,.cls-35{fill:none;}.cls-26{opacity:0.46;}.cls-27{fill:#7fb0b2;}.cls-28{fill:#777;}.cls-29{fill:#8e8e8e;}.cls-30{fill:#5b7f7f;}.cls-31{fill:#70c4c4;}.cls-32{fill:#4a7328;}.cls-33{opacity:0.74;}.cls-34{fill:#3e5e20;}.cls-35{stroke:#5e5e5e;stroke-miterlimit:10;}.cls-36{opacity:0.53;}.cls-37{opacity:0.76;}.cls-38{opacity:0.65;}.cls-39,.cls-41,.cls-43,.cls-44{opacity:0.5;}.cls-40,.cls-43{fill:#3a3a3a;}.cls-40{opacity:0.56;}.cls-42{opacity:0.51;}</style></defs><g id="Layer_2" data-name="Layer 2"><g id="Layer_3" data-name="Layer 3"><polyline class="cls-1" points="882.54 446.81 927.82 472.98 387.63 784.88 0.46 561.33 45.65 535.1"/><polygon class="cls-2" points="936.84 395.04 936.84 415.46 387.7 732.46 387.58 711.83 936.84 395.04"/><polygon class="cls-3" points="0 488.82 557.79 177.18 935.93 395.55 387.54 711.95 0 488.82"/><polygon class="cls-4" points="504.99 436.46 522.95 446.83 540.99 436.46 522.99 426.07 504.99 436.46"/><polygon class="cls-5" points="461.43 353.47 461.36 377.32 461.17 436.44 451.82 431.04 425.17 415.65 424.63 332.85 438.93 340.86 461.43 353.47"/><polygon class="cls-5" points="470.47 431.69 470.17 472.81 460.9 478.17 461.17 436.44 470.47 431.69"/><polygon class="cls-5" points="461.17 436.45 460.9 478.17 452.17 472.82 451.82 431.05 461.17 436.45"/><polygon class="cls-5" points="497.17 332.54 497.17 415.65 461.17 436.44 461.36 377.32 461.43 353.47 475.1 345.46 491.99 335.57 497.17 332.54"/><path class="cls-6" d="M163.33,280.37V405.1l.06-40.65,35.2,20.14L163.33,405.1v41.65l81,47.31-.26.14,0,30.42.3.17,2.34,1.36,24.93,14.39,16.71,9.64L288,467.7l36.28-20.95,36.27,20.63V591.87l1,.56,8.76-5.09.21,10.16,8.85,5.11,8.84-4.94.31-10.45,17.69,10.45.19,19v-196Zm.35,20.79,35.65,21L163.39,343Zm188,171.37-27,15.78v.07l27.51-15.52Z"/><path class="cls-7" d="M470.44,445.5,461.15,451l-9,5.32-45.7,26.9-.07,0V616.67l0,1.64,81-46.44V435.56ZM460.28,566.33l-26.87,15.58V488.46l22.81-13.24,4.06-2.36Z"/><polygon class="cls-8" points="406.35 618.31 406.33 618.32 406.33 616.67 406.35 618.31"/><polygon class="cls-8" points="460.28 566.33 433.41 581.91 433.41 550.82 460.28 566.33"/><polygon class="cls-7" points="487.33 373.9 487.33 394.89 461.32 409.9 451.33 415.67 438.36 423.2 405.65 441.7 405.65 420.67 425.2 409.77 461.38 388.88 469.23 384.35 487.33 373.9"/><polygon class="cls-9" points="487.33 373.9 469.23 384.35 461.38 388.88 425.2 409.77 406.33 420.67 163.33 280.37 271.33 218.02 271.33 228.63 181.36 280.59 190.33 285.77 406.11 410.48 425.14 399.53 460.33 379.28 460.39 379.24 461.41 379.83 461.41 378.66 469.68 373.9 461.44 369.17 442.91 358.52 424.8 348.12 298.33 275.46 379.67 228.81 388.7 223.63 334.39 192.21 334.22 192.31 325.1 186.98 334.33 181.65 406.33 223.22 315.28 275.78 406.33 327.71 424.74 338.2 442.69 348.44 461.47 359.15 487.33 373.9"/><polygon class="cls-8" points="181.36 280.59 271.33 228.63 271.33 239.05 190.33 285.77 181.36 280.59"/><polygon class="cls-8" points="297.88 223.16 327.48 206.65 297.89 223.73 297.88 223.16"/><polygon class="cls-8" points="334.39 202.67 334.5 202.73 327.8 206.47 334.39 202.67"/><polygon class="cls-8" points="388.7 223.63 379.67 228.81 343.45 207.9 343.49 197.72 334.39 192.4 334.22 192.31 334.39 192.21 388.7 223.63"/><polygon class="cls-8" points="461.41 378.66 461.41 379.83 460.39 379.24 461.41 378.66"/><polygon class="cls-7" points="406.33 223.22 406.33 327.71 315.33 275.75 406.33 223.22"/><polygon class="cls-10" points="253.33 353.32 253.33 394.89 163.39 343.02 199.33 322.14 253.33 353.32"/><polygon class="cls-10" points="234.35 405.43 234.35 446.08 162.35 405.43 198.35 384.65 234.35 405.43"/><polygon class="cls-2" points="244.33 524.8 244.33 462.44 272.03 478.44 271.6 508.7 244.33 524.8"/><polygon class="cls-11" points="253.33 467.64 272.03 478.44 271.33 529.99 253.33 519.6 253.33 467.64"/><polygon class="cls-12" points="271.33 529.99 271.6 540.64 244.33 524.8 253.33 519.6 271.33 529.99"/><polygon class="cls-10" points="487.33 435.56 470.44 445.5 461.15 450.97 452.1 456.29 406.4 483.19 406.33 483.15 369.74 462.43 406.33 441.8 438.36 423.2 451.33 415.67 461.29 421.17 474.75 428.61 487.33 435.56"/><polygon class="cls-13" points="369.74 420.91 406.11 441.79 369.74 462.43 369.74 420.91"/><polygon class="cls-10" points="280.33 368.91 280.33 410.48 343.33 446.85 343.02 405.11 280.33 368.91"/><polygon class="cls-13" points="280.33 410.48 316.33 389.7 280.33 368.91 280.33 410.48"/><polygon class="cls-13" points="460.28 472.86 460.28 566.33 433.41 550.82 433.41 488.46 456.22 475.22 460.28 472.86"/><polygon class="cls-8" points="460.28 566.33 433.41 581.91 433.41 550.82 460.28 566.33"/><polygon class="cls-10" points="460.28 566.33 433.41 581.91 433.41 550.82 460.28 566.33"/><polygon class="cls-8" points="352.28 472.86 324.77 488.38 324.77 488.31 351.72 472.53 352.28 472.86"/><polygon class="cls-10" points="370.16 482.97 370.16 524.41 360.52 518.77 360.52 477.38 370.16 482.97"/><polygon class="cls-8" points="352.28 472.86 324.77 488.38 324.77 488.31 351.72 472.53 352.28 472.86"/><polygon class="cls-14" points="460.33 379.28 425.14 399.53 406.11 410.48 190.33 285.77 271.33 239.05 271.33 249.4 298.33 264.99 343.31 238.99 343.45 207.9 379.67 228.81 298.33 275.46 298.34 285.77 424.87 358.81 460.33 379.28"/><polygon class="cls-8" points="181.36 280.59 271.33 228.63 271.33 239.05 190.33 285.77 181.36 280.59"/><polygon class="cls-8" points="297.88 223.16 327.48 206.65 297.89 223.73 297.88 223.16"/><polygon class="cls-8" points="334.39 202.67 334.5 202.73 327.8 206.47 334.39 202.67"/><polygon class="cls-8" points="388.7 223.63 379.67 228.81 343.45 207.9 343.49 197.72 334.39 192.4 334.22 192.31 334.39 192.21 388.7 223.63"/><polygon class="cls-15" points="388.7 223.63 379.67 228.81 343.45 207.9 343.49 197.72 334.39 192.4 334.39 192.21 388.7 223.63"/><polygon class="cls-7" points="181.36 280.59 271.33 228.63 271.33 239.05 190.33 285.77 181.36 280.59"/><polygon class="cls-8" points="327.48 206.65 297.89 223.73 297.88 223.16 327.48 206.65"/><polygon class="cls-8" points="334.39 192.21 334.39 192.4 334.22 192.31 334.39 192.21"/><polygon class="cls-15" points="469.68 373.9 461.41 378.66 460.39 379.24 460.33 379.28 424.87 358.81 298.34 285.77 298.33 275.46 424.8 348.12 442.91 358.52 461.44 369.17 469.68 373.9"/><polygon class="cls-1" points="298.33 264.99 271.33 249.4 271.33 207.83 280.16 212.93 289.34 218.23 297.88 223.16 297.89 223.73 298.33 264.99"/><polygon class="cls-16" points="343.49 197.72 343.45 207.9 343.31 238.99 298.33 264.99 297.88 223.16 343.49 197.72"/><polygon class="cls-8" points="327.48 206.65 297.88 223.16 297.88 223.16 327.48 206.65"/><polyline class="cls-17" points="297.88 223.16 289.34 218.23 280.16 212.93 271.33 207.83 316.33 181.85 325.1 186.98 334.22 192.31 334.39 192.4 343.49 197.72"/><polygon class="cls-8" points="461.41 378.66 461.41 379.83 460.39 379.24 461.41 378.66"/><polygon class="cls-6" points="640.52 254.61 640.52 483.24 595.79 457.42 595.79 332.36 560.05 353.3 523.25 332.68 523.3 345.1 523.3 345.12 523.78 363.58 523.37 363.35 523.58 415.73 497.24 400.52 497.24 332.51 460.97 311.88 446.88 320.02 442.13 322.76 442.01 317.26 478.52 296.28 442.52 275.49 442.52 254.61 478.52 233.82 443.18 213.42 442.01 191.96 478.19 171.66 442.01 150.39 442.01 129.6 477.89 109.19 442.01 88.63 442.01 57.45 550.52 119.51 550.52 202.65 640.52 254.61"/><polygon class="cls-9" points="442 57.45 541.52 0 649.52 62.35 550.52 119.51 442 57.45"/><polygon class="cls-7" points="649.52 62.35 649.52 145.49 550.52 202.65 550.52 119.51 649.52 62.35"/><path class="cls-18" d="M730.37,192.35l-80.85-46.86-99,57.16,90,52,62.6-36.14,9.09-5.25,27.14-15.67ZM676.2,203l-35.48,20.48-27-15.58-.05-31.21L649.72,156l26.48,15.19Z"/><polygon class="cls-8" points="676.2 171.21 676.2 202.98 640.72 223.46 613.72 207.88 613.67 176.67 649.72 156.02 676.2 171.21"/><path class="cls-7" d="M739.5,405.31l-.15.09.14-21.43,0-20.38-.1-135.15,0-30.89-27.14,15.67-9.09,5.25-62.6,36.14V483.24l99-57.16Zm-18,10.15-63,35.45V420.66L694.35,400l27.17-15.69Zm0-51.88-63,35.44V368.77l35.83-20.68,9.27-5.35h0l17.9-10.33Zm0-51.89-18,10.12-45,25.33V316.89l35.83-20.69,9.06-5.23,18.11-10.46Zm0-51.89L703.33,270l-44.81,25.21V265l35.83-20.68,8.85-5.11h0l18.32-10.57Z"/><polygon class="cls-8" points="694.35 399.97 721.52 384.28 721.52 415.46 658.52 450.91 658.52 420.66 694.35 399.97"/><polygon class="cls-8" points="721.52 228.63 703.2 239.21 703.2 239.2 721.52 228.63"/><polygon class="cls-8" points="721.52 363.58 658.52 399.02 658.52 368.77 694.35 348.09 721.52 363.58"/><polygon class="cls-8" points="739.5 405.31 739.35 405.4 739.49 383.97 739.5 405.31"/><polygon class="cls-10" points="721.52 259.8 703.33 270.04 658.52 295.25 658.52 265 694.35 244.32 703.25 249.39 721.52 259.8"/><polygon class="cls-8" points="721.52 228.63 703.2 239.21 703.2 239.2 721.52 228.63"/><polygon class="cls-10" points="721.52 311.69 703.54 321.81 658.52 347.14 658.52 316.89 694.35 296.2 703.45 301.39 721.52 311.69"/><polygon class="cls-10" points="721.52 363.58 658.52 399.02 658.52 368.77 694.35 348.09 721.52 363.58"/><polygon class="cls-10" points="721.52 384.28 721.52 415.46 658.52 450.91 658.52 420.66 694.35 399.97 721.52 384.28"/><polygon class="cls-13" points="721.52 384.28 721.52 415.46 694.35 399.97 721.52 384.28"/><polygon class="cls-10" points="442 129.61 523.52 176.67 523.52 135.1 478.35 109.02 442 129.61"/><polygon class="cls-10" points="478.18 171.67 524.42 197.97 523.69 239.12 442 191.96 478.18 171.67"/><polygon class="cls-10" points="442.52 254.61 523.52 301.51 523.52 259.81 478.52 233.83 442.52 254.61"/><polygon class="cls-10" points="523.78 363.58 523.37 363.35 497.24 348.55 497.24 332.51 460.97 311.88 446.88 320.02 442.01 317.26 478.52 296.28 522.69 321.68 523.3 345.1 523.3 345.12 523.78 363.58"/><polygon class="cls-19" points="497.17 332.54 491.99 335.57 475.1 345.46 461.43 353.47 438.93 340.86 424.63 332.85 438.87 324.63 459.38 312.79 460.9 311.91 475.15 320.02 497.17 332.54"/><polygon class="cls-20" points="523.25 322 523.25 353.71 497.17 338.57 497.17 332.54 475.15 320.02 460.9 311.91 459.38 312.79 459.38 285.94 523.25 322"/><polygon class="cls-1" points="532.52 77.94 505.52 62.35 505.47 31.15 532.52 46.77 532.52 77.94"/><polygon class="cls-16" points="568 57.45 532.52 77.94 532.52 46.77 568 25.68 568 57.45"/><polygon class="cls-17" points="505.47 31.15 541.52 10.49 568 25.68 532.52 46.77 505.47 31.15"/><polygon class="cls-1" points="640.72 192.29 640.72 223.46 613.72 207.88 613.67 176.67 640.72 192.29"/><polygon class="cls-16" points="676.2 171.21 676.2 202.98 640.72 223.46 640.72 192.29 676.2 171.21"/><polygon class="cls-17" points="676.2 171.21 640.72 192.29 613.67 176.67 649.72 156.02 676.2 171.21"/><polygon class="cls-21" points="793.15 446.87 802.15 452.07 802.15 431.24 793.15 426.05 793.15 446.87"/><polygon class="cls-22" points="811.15 446.87 802.15 452.07 802.15 431.24 811.15 426.05 811.15 446.87"/><polygon class="cls-5" points="802.15 431.24 838.15 410.46 837.54 358.85 802.15 379.28 802.15 431.24"/><polygon class="cls-23" points="766.15 410.46 802.15 431.24 802.15 379.28 765.54 358.85 766.15 410.46"/><polygon class="cls-19" points="837.54 358.85 802.15 337.71 765.54 358.85 802.15 379.28 837.54 358.85"/><polygon class="cls-21" points="793.15 363.69 801.69 368.72 801.69 348.08 793.8 343.29 793.15 363.69"/><polygon class="cls-22" points="810.69 363.81 801.69 368.72 801.69 348.15 810.5 343.29 810.69 363.81"/><polygon class="cls-21" points="793.8 343.29 802.15 337.71 810.5 343.29 801.69 348.08 793.8 343.29"/><polygon class="cls-21" points="751.03 483.55 760.1 488.79 760.1 478.4 751.03 473.16 751.03 483.55"/><polygon class="cls-22" points="769.03 473.16 769.03 483.55 760.1 488.79 760.1 478.4 769.03 473.16"/><polygon class="cls-23" points="733.03 462.77 760.1 478.4 760.1 447.14 733.03 431.77 733.03 462.77"/><polygon class="cls-5" points="787.03 462.77 760.1 478.4 760.1 447.14 786.73 431.77 787.03 462.77"/><polygon class="cls-19" points="733.03 431.77 760.1 416.05 786.73 431.77 760.1 447.14 733.03 431.77"/><polygon class="cls-22" points="759.88 436.7 768.73 431.77 769.03 421.32 759.88 426.31 759.88 436.7"/><polygon class="cls-21" points="751.03 431.59 759.88 436.7 759.88 426.31 750.83 421.32 751.03 431.59"/><polygon class="cls-21" points="769.03 421.32 760.1 416.05 750.83 421.32 759.88 426.31 769.03 421.32"/><polygon class="cls-21" points="379.52 644.3 379.52 654.7 370.45 649.46 370.45 639.07 379.52 644.3"/><polygon class="cls-22" points="388.45 638.77 388.45 649.16 379.52 654.4 379.52 644 388.45 638.77"/><polygon class="cls-23" points="379.52 613.04 379.52 644.3 370.45 639.07 352.45 628.67 352.45 597.67 360.52 602.25 379.52 613.04"/><polygon class="cls-5" points="388.45 639.12 388.45 639.07 379.52 644.3 379.52 613.04 388.35 607.94 406.14 597.67 406.33 616.67 406.33 618.32 406.35 618.31 406.45 628.67 388.45 639.12"/><polygon class="cls-8" points="379.52 644.3 388.45 639.07 388.45 639.12 379.52 644.3"/><polygon class="cls-8" points="406.35 618.31 406.33 618.32 406.33 616.67 406.35 618.31"/><polygon class="cls-8" points="388.45 587.22 388.14 597.67 379.3 602.61 370.45 597.5 370.24 587.34 370.35 587.28 379.52 581.95 388.45 587.22"/><polygon class="cls-22" points="388.45 587.22 388.14 597.67 379.3 602.61 379.3 592.21 388.45 587.22"/><polygon class="cls-21" points="379.3 592.21 379.3 602.61 370.45 597.5 370.24 587.34 370.24 587.22 370.35 587.28 379.3 592.21"/><polygon class="cls-21" points="388.45 587.23 379.52 581.95 370.24 587.23 379.3 592.22 388.45 587.23"/><polygon class="cls-13" points="550.52 233.83 550.68 296.09 568.52 306.57 568.52 244.22 550.52 233.83"/><polygon class="cls-10" points="550.68 296.09 568.25 285.94 568.52 306.57 550.68 296.09"/><polygon class="cls-13" points="595.71 259.91 595.87 322.17 613.71 332.65 613.71 270.3 595.71 259.91"/><polygon class="cls-10" points="595.87 322.17 613.44 312.02 613.71 332.65 595.87 322.17"/><polygon class="cls-19" points="144.4 383.63 122.33 396.55 108.66 404.56 86.16 391.95 71.86 383.94 86.1 375.72 108.13 363 122.38 371.11 144.4 383.63"/><polygon class="cls-23" points="108.66 404.56 108.59 428.41 108.4 487.53 99.05 482.13 72.4 466.74 71.86 383.94 86.16 391.95 108.66 404.56"/><polygon class="cls-22" points="117.7 482.13 117.68 504.07 108.66 509.25 108.4 487.53 117.7 482.13"/><polygon class="cls-21" points="108.4 487.53 108.66 509.25 99.62 504 99.05 482.13 108.4 487.53"/><polygon class="cls-8" points="461.41 378.66 461.41 379.83 460.39 379.24 461.41 378.66"/><polygon class="cls-19" points="595.01 341.77 559.27 362.71 522.48 342.09 558.75 321.15 595.01 341.77"/><polygon class="cls-5" points="595.01 341.77 595.01 476.87 559.01 497.66 559.12 446.1 559.27 362.71 595.01 341.77"/><polygon class="cls-23" points="559.27 362.71 559.12 446.1 559.01 497.66 549.66 492.26 523.01 476.87 522.8 425.14 522.6 372.76 522.52 354.53 522.52 354.51 522.48 342.09 559.27 362.71"/><polygon class="cls-22" points="568.32 492.26 568.09 524.37 558.81 529.59 559.02 497.66 568.32 492.26"/><polygon class="cls-21" points="559.01 497.66 558.81 529.59 549.93 524.47 549.66 492.26 559.01 497.66"/><polygon class="cls-19" points="360.52 467.38 351.94 472.41 351.72 472.53 324.77 488.31 316.51 483.68 287.97 467.7 324.25 446.75 360.52 467.38"/><polygon class="cls-19" points="406.14 597.67 388.35 607.94 379.52 613.04 360.52 602.25 352.45 597.67 360.52 592.98 361.48 592.43 370.24 587.34 370.45 597.5 379.3 602.61 388.14 597.67 388.45 587.22 406.14 597.67"/><polygon class="cls-5" points="360.52 467.38 360.52 592.98 352.45 597.67 352.45 607.14 324.52 623.27 324.62 571.14 324.75 497.86 324.77 488.31 350.42 473.29 351.72 472.53 351.94 472.41 360.52 467.38"/><polygon class="cls-8" points="350.9 473.01 324.77 488.31 324.77 488.31 351.72 472.53 350.9 473.01"/><polygon class="cls-23" points="324.77 488.31 324.77 488.38 324.75 497.86 324.62 571.14 324.52 623.27 315.17 617.87 288.52 602.48 288.31 550.18 287.97 467.7 316.51 483.68 324.77 488.31"/><polygon class="cls-22" points="333.82 617.9 333.66 639.07 324.52 644.13 324.51 623.27 333.82 617.9"/><polygon class="cls-21" points="324.52 623.27 324.52 644.13 315.35 638.98 315.17 617.87 324.52 623.27"/><polygon class="cls-19" points="775.62 207.79 739.35 229.03 739.37 228.44 739.35 197.55 730.37 192.35 739.35 187.16 775.62 207.79"/><polygon class="cls-5" points="739.47 363.7 775.47 342.92 775.47 207.82 739.2 229.06 739.47 363.7"/><polygon class="cls-13" points="721.52 228.56 721.52 259.8 703.25 249.39 694.35 244.32 703.2 239.21 721.52 228.56"/><polygon class="cls-8" points="721.52 228.63 703.2 239.21 703.2 239.2 721.52 228.63"/><polygon class="cls-13" points="721.52 280.51 721.52 311.69 703.45 301.39 694.35 296.2 703.41 290.97 721.52 280.51"/><polygon class="cls-13" points="721.52 332.4 721.52 363.58 694.35 348.09 703.62 342.74 703.62 342.73 721.52 332.4"/><line class="cls-8" x1="739.37" y1="228.44" x2="739.37" y2="228.72"/><polygon class="cls-22" points="747.72 358.94 747.71 379.31 739.48 384.13 739.47 363.7 747.72 358.94"/><polygon class="cls-8" points="739.47 363.67 739.49 383.97 739.47 363.59 739.47 363.67"/><polygon class="cls-19" points="85.71 280.73 122.51 301.35 158.25 280.42 121.98 259.79 85.71 280.73"/><polygon class="cls-5" points="144.4 383.63 144.4 466.74 108.4 487.53 108.59 428.41 108.66 404.56 122.33 396.55 144.4 383.63"/><polygon class="cls-5" points="158.26 280.42 158.26 415.52 144.4 423.52 144.4 383.63 122.38 371.11 122.51 301.35 158.26 280.42"/><polygon class="cls-23" points="122.51 301.35 122.38 371.11 108.13 363 86.1 375.72 85.71 280.73 122.51 301.35"/><line class="cls-24" x1="71.86" y1="447.35" x2="0.91" y2="488.31"/><line class="cls-24" x1="936.84" y1="395.04" x2="777.84" y2="303.25"/><polygon class="cls-25" points="387.7 732.46 0.65 509.25 0.91 488.31 387.58 711.83 387.7 732.46"/><polygon class="cls-23" points="225.67 504.04 225.6 513.98 225.46 535.12 144.65 488.14 144.4 457.43 163.33 468.29 225.67 504.04"/><polygon class="cls-5" points="244.07 494.2 244.03 524.62 225.46 535.12 225.6 513.98 225.67 504.04 244.07 494.2"/><polygon class="cls-19" points="244.33 494.06 244.07 494.2 225.67 504.04 163.33 468.29 144.4 457.43 163.33 446.75 244.33 494.06"/><polygon class="cls-26" points="190.33 285.77 202.07 292.56 275.58 251.86 271.33 249.4 271.33 239.05 190.33 285.77"/><polygon class="cls-4" points="162.65 550.82 180.3 561.1 198.65 550.82 180.28 540.64 162.65 550.82"/><polygon class="cls-4" points="153.58 535.07 171.23 545.35 189.58 535.07 171.21 524.9 153.58 535.07"/><polygon class="cls-4" points="118.38 504.38 136.03 514.66 154.38 504.38 136 494.2 118.38 504.38"/><polygon class="cls-4" points="100.38 545.44 118.03 555.71 136.38 545.44 118 535.26 100.38 545.44"/><polygon class="cls-4" points="45.57 493.57 63.22 503.85 81.57 493.57 63.19 483.39 45.57 493.57"/><polygon class="cls-4" points="9.57 492.95 27.22 503.23 45.57 492.95 27.19 482.78 9.57 492.95"/><polygon class="cls-4" points="198.5 581.91 216.46 592.28 234.5 581.91 216.5 571.52 198.5 581.91"/><polygon class="cls-4" points="244.07 555.72 262.03 566.09 280.07 555.72 262.07 545.33 244.07 555.72"/><polygon class="cls-4" points="243.23 576.48 261.19 586.85 279.23 576.48 261.23 566.08 243.23 576.48"/><polygon class="cls-4" points="243.23 618.33 261.19 628.7 279.23 618.33 261.23 607.94 243.23 618.33"/><polygon class="cls-4" points="261.72 618.32 279.68 628.69 297.72 618.32 279.72 607.93 261.72 618.32"/><polygon class="cls-4" points="388.45 680.74 406.41 691.11 424.45 680.74 406.45 670.35 388.45 680.74"/><polygon class="cls-4" points="406.63 669.98 424.59 680.35 442.63 669.98 424.63 659.58 406.63 669.98"/><polygon class="cls-4" points="450.87 633.93 468.83 644.3 486.87 633.93 468.87 623.54 450.87 633.93"/><polygon class="cls-4" points="468.87 592.35 486.83 602.72 504.87 592.35 486.87 581.95 468.87 592.35"/><polygon class="cls-4" points="504.75 508.99 522.71 519.36 540.75 508.99 522.75 498.6 504.75 508.99"/><polygon class="cls-4" points="495.74 524.86 513.7 535.23 531.74 524.86 513.74 514.46 495.74 524.86"/><polygon class="cls-4" points="693.59 493.62 711.55 503.99 729.59 493.62 711.59 483.22 693.59 493.62"/><polygon class="cls-4" points="694.35 472.85 712.31 483.22 730.35 472.85 712.35 462.46 694.35 472.85"/><polygon class="cls-4" points="792.29 457.53 810.25 467.9 828.29 457.53 810.29 447.14 792.29 457.53"/><polygon class="cls-4" points="820.15 421.1 838.11 431.47 856.15 421.1 838.15 410.71 820.15 421.1"/><polygon class="cls-4" points="882.31 395.05 900.27 405.42 918.31 395.05 900.31 384.66 882.31 395.05"/><polygon class="cls-4" points="855.28 389.68 873.25 400.05 891.28 389.68 873.28 379.28 855.28 389.68"/><polygon class="cls-4" points="837.28 358.34 855.25 368.71 873.28 358.34 855.28 347.95 837.28 358.34"/><polygon class="cls-4" points="775.15 332.41 793.11 342.78 811.15 332.41 793.15 322.02 775.15 332.41"/><polygon class="cls-4" points="486.99 467.39 504.95 477.76 522.99 467.39 504.99 457 486.99 467.39"/><polygon class="cls-4" points="408.3 304.58 426.26 314.95 444.3 304.58 426.3 294.19 408.3 304.58"/><polygon class="cls-4" points="406.42 261.95 424.38 272.32 442.42 261.95 424.42 251.56 406.42 261.95"/><polygon class="cls-4" points="341.14 675.38 359.1 685.75 377.14 675.38 359.14 664.99 341.14 675.38"/><polygon class="cls-4" points="414.65 633.93 432.61 644.3 450.65 633.93 432.65 623.54 414.65 633.93"/><polygon class="cls-19" points="703.05 447.14 640.05 483.5 639.58 483.22 639.51 462.57 684.75 436.44 703.05 447.14"/><polygon class="cls-5" points="703.05 447.14 702.57 467.58 639.65 503.69 639.58 483.22 640.05 483.5 703.05 447.14"/><polygon class="cls-19" points="639.58 483.22 603.65 461.96 621.81 452.23 639.51 462.57 666.86 467.9 639.58 483.22"/><polygon class="cls-23" points="639.65 503.69 603.65 483.5 603.65 461.96 639.58 483.22 639.65 503.69"/><polygon class="cls-27" points="522.75 561.16 604.37 514.03 630.54 529.97 693.59 493.75 729.86 514.46 531.7 628.79 504.4 612.99 531.54 597.64 513.31 587 540.73 571.59 522.75 561.16"/><polygon class="cls-28" points="531.31 566.12 604.39 524.41 604.37 514.03 522.75 561.16 531.31 566.12"/><polygon class="cls-28" points="513.31 618.14 531.86 607.48 531.54 597.64 504.4 612.99 513.31 618.14"/><polygon class="cls-28" points="522.25 592.22 540.65 581.91 540.73 571.59 513.31 587 522.25 592.22"/><polygon class="cls-28" points="630.54 529.97 630.65 540.08 693.7 504.02 693.59 493.75 630.54 529.97"/><polygon class="cls-29" points="604.37 514.03 630.54 529.97 630.65 540.08 604.37 525.26 604.37 514.03"/><polygon class="cls-29" points="693.59 493.75 693.7 504.02 720.53 519.58 729.86 514.46 693.59 493.75"/><polygon class="cls-30" points="522.57 623.04 549.65 607.89 531.54 597.64 531.8 607.89 513.31 618.14 522.57 623.04"/><polygon class="cls-30" points="531.54 597.64 558.65 581.95 540.73 571.59 540.65 581.91 522.25 592.22 531.54 597.64"/><polygon class="cls-30" points="720.53 519.57 711.65 524.41 693.7 514.03 639.51 545.54 612.65 529.92 603.65 535.26 540.73 571.58 531.42 566.12 603.65 524.83 630.65 540.07 693.7 504.01 720.53 519.57"/><polygon class="cls-31" points="576.82 581.9 567.76 586.94 576.82 592.49 586.13 587.2 576.82 581.9"/><polygon class="cls-31" points="576.95 571.43 585.92 576.77 594.65 571.43 585.65 566.33 576.95 571.43"/><polygon class="cls-31" points="630.54 561.15 622.15 566.12 612.65 561.15 621.59 555.99 630.54 561.15"/><polygon class="cls-31" points="657.81 545.42 666.86 550.82 675.93 545.57 666.65 540.08 657.81 545.42"/><polygon class="cls-32" points="72.27 439.39 90.82 449.55 90.82 469.83 72.36 460.5 72.27 439.39"/><polygon class="cls-32" points="89.77 405.45 108.32 415.62 108.32 435.89 89.86 426.56 89.77 405.45"/><polygon class="cls-32" points="153.67 463.18 162.68 468.11 162.68 477.95 153.72 473.42 153.67 463.18"/><polygon class="cls-32" points="180.53 488.31 189.53 493.25 189.53 503.08 180.57 498.56 180.53 488.31"/><polygon class="cls-32" points="352.66 609.39 361.17 614.22 361.17 624.06 352.71 619.64 352.66 609.39"/><polygon class="cls-32" points="733.03 452.59 742.03 457.52 742.03 467.36 733.07 462.83 733.03 452.59"/><polygon class="cls-32" points="622.32 473.04 631.32 477.97 631.32 487.81 622.36 483.28 622.32 473.04"/><polygon class="cls-32" points="539.9 360.51 558.45 370.67 558.45 390.94 539.3 381.27 539.9 360.51"/><polygon class="cls-32" points="522.89 422.87 542.04 433.36 542.04 453.63 522.89 443.96 522.89 422.87"/><polygon class="cls-32" points="306.7 550.72 324.24 561.03 324.24 581.3 306.37 571.77 306.7 550.72"/><polygon class="cls-32" points="288.16 513.83 306.66 524.27 306.66 544.54 288.25 535.12 288.16 513.83"/><polygon class="cls-32" points="765.9 369.3 784.4 379.75 784.4 400.02 765.99 390.6 765.9 369.3"/><polygon class="cls-32" points="104.44 319.8 121.98 330.11 121.98 350.38 104.11 340.85 104.44 319.8"/><polygon class="cls-20" points="180.65 311.15 180.51 342.72 253.33 384.65 253.33 353.32 180.65 311.15"/><polygon class="cls-33" points="180.51 374.23 180.51 405.25 234.37 436.34 234.59 404.83 180.51 374.23"/><polygon class="cls-20" points="288.65 373.9 289.06 405.56 343.26 436.86 343.02 405.11 288.65 373.9"/><polygon class="cls-20" points="450.98 478.26 450.98 561.27 433.41 571.17 433.41 488.46 450.98 478.26"/><polygon class="cls-20" points="378.73 426.16 378.73 457.24 405.8 472.79 468.75 436.45 468.65 405.73 405.65 441.7 378.73 426.16"/><polygon class="cls-20" points="360.65 477.76 370.16 482.97 369.74 514.5 360.62 509.21 360.65 477.76"/><polygon class="cls-20" points="459.65 99.05 459.65 129.75 523.52 166.81 523.52 135.1 459.65 99.05"/><polygon class="cls-20" points="460.07 160.87 460.07 192.23 523.94 229.29 523.94 197.59 460.07 160.87"/><polygon class="cls-20" points="459.65 222.93 459.38 254.44 523.25 291.5 523.25 259.79 459.65 222.93"/><polygon class="cls-20" points="558.46 238.41 558.78 291.15 568.39 296.64 568.52 244.22 558.46 238.41"/><polygon class="cls-20" points="603.61 264.11 603.93 316.85 613.54 322.34 613.67 269.92 603.61 264.11"/><polygon class="cls-20" points="658.52 285.32 711.7 254.61 711.7 234.27 658.52 265 658.52 285.32"/><polygon class="cls-20" points="658.88 337.55 712.06 306.84 712.06 286.5 658.88 317.23 658.88 337.55"/><polygon class="cls-20" points="658.88 389.1 712.06 358.4 712.06 338.06 658.88 368.79 658.88 389.1"/><polygon class="cls-20" points="658.88 440.98 712.06 410.28 712.06 389.94 658.88 420.67 658.88 440.98"/><polygon class="cls-34" points="334.02 514.66 334.02 535.12 351.55 524.9 351.72 504.1 334.02 514.66"/><polygon class="cls-34" points="757.81 322.43 757.81 342.89 775.34 332.66 775.51 311.86 757.81 322.43"/><polygon class="cls-34" points="739.92 260.05 739.92 280.5 757.46 270.28 757.62 249.48 739.92 260.05"/><polygon class="cls-34" points="820.45 399.62 820.45 420.07 837.98 409.85 838.15 389.05 820.45 399.62"/><polygon class="cls-34" points="477.7 358.45 477.7 368.18 487.33 373.9 497 368.44 497.17 347.64 477.7 358.45"/><polygon class="cls-34" points="140.32 355.69 140.32 376.15 157.85 365.92 158.02 345.12 140.32 355.69"/><polygon class="cls-34" points="126.4 436.97 126.4 457.43 143.93 447.21 144.1 426.41 126.4 436.97"/><polygon class="cls-34" points="567.32 451.29 567.32 471.75 584.86 461.52 585.02 440.72 567.32 451.29"/><polygon class="cls-34" points="685.48 477.76 685.48 467.9 694.55 462.79 694.55 472.71 685.48 477.76"/><polygon class="cls-34" points="234.96 519.69 234.96 509.82 244.03 504.71 244.03 514.64 234.96 519.69"/><polygon class="cls-34" points="657.58 483.5 657.58 473.63 666.65 468.53 666.65 478.45 657.58 483.5"/><polygon class="cls-34" points="775.15 456.01 775.15 446.14 784.22 441.04 784.22 450.96 775.15 456.01"/><path class="cls-35" d="M271.32,515.4l-.09,0a2.31,2.31,0,0,1-2.93-2.23V502.47a2.32,2.32,0,0,1,3.3-2.1h0"/><polygon class="cls-36" points="306.84 270.34 315.33 275.75 360.8 249.35 352.2 244.57 306.84 270.34"/><polygon class="cls-37" points="298.33 264.99 306.84 270.34 352.2 244.57 343.31 238.99 298.33 264.99"/><polygon class="cls-38" points="640.72 223.46 666.7 238.96 703.12 218.47 676.2 202.98 640.72 223.46"/><polygon class="cls-38" points="532.52 77.94 567.65 98.89 604.06 77.94 568 57.45 532.52 77.94"/><polygon class="cls-39" points="550.68 296.09 568.42 298.91 568.52 296.64 558.78 291.15 550.68 296.09"/><polygon class="cls-39" points="280.33 410.48 303.69 414.13 298.63 411.05 288.9 405.56 280.33 410.48"/><polygon class="cls-39" points="370.16 462.98 393.52 466.62 388.46 463.55 378.73 458.06 370.16 462.98"/><polygon class="cls-39" points="244.07 524.6 267.43 528.25 262.37 525.17 252.63 519.69 244.07 524.6"/><polygon class="cls-39" points="595.79 322.04 613.53 324.86 613.63 322.58 603.9 317.1 595.79 322.04"/><polyline class="cls-40" points="342.41 644.32 333.66 639.07 324.52 644.13 333.83 649.21 320.15 657.25 400.69 704.29 441.52 680.73 424.08 669.96 432.7 664.64 396.88 644.3 388.45 649.16 388.45 639.12 379.52 644.3 370.45 639.07 370.45 645.99 354.81 636.92"/><polygon class="cls-41" points="406.33 420.67 405.8 472.79 414.54 478.4 406.4 483.19 406.35 618.31 477.65 659.98 559.22 612.84 487.33 571.87 487.33 435.56 468.87 426.41 468.65 405.73 487.33 394.89 487.33 373.9 406.33 420.67"/><polygon class="cls-41" points="640.52 254.61 639.51 462.57 657.58 473.63 639.58 483.22 639.65 503.69 657.63 514.46 684.65 498.9 684.65 508.98 693.69 504.04 721.03 519.58 810.25 467.9 786.95 454 786.73 431.77 760.1 416.05 741.24 427 739.52 426.08 739.35 197.55 640.52 254.61"/><polygon class="cls-42" points="225.46 535.12 252.82 550.72 271.14 540.38 244.07 524.6 225.46 535.12"/><polygon class="cls-42" points="513.74 441.92 522.89 447.05 523.01 476.87 532.88 482.56 514.79 493 487.44 476.02 487.33 435.56 474.75 428.61 483.54 423.52 513.74 441.92"/><polygon class="cls-42" points="802.15 452.07 811.15 457 800.83 462.46 811.15 468.53 838.15 452.07 828.29 446.75 820.45 451.63 811.15 446.87 802.15 452.07"/><polygon class="cls-42" points="760.1 488.79 766.66 493 775.15 488.18 769.03 483.55 760.1 488.79"/><polygon class="cls-41" points="559.52 529.97 567.46 535.12 567.67 545.64 576.67 550.84 558.75 561.27 603.46 587.09 639.65 566.12 594.65 540.08 585.8 545.71 576.65 540.08 576.95 529.87 568.79 524.63 559.52 529.97"/><polygon class="cls-43" points="360.52 592.98 388.35 607.94 379.52 613.04 379.52 644.3 352.45 628.67 352.45 597.67 360.52 592.98"/><polygon class="cls-41" points="144.86 457.17 144.65 488.14 207.55 524.9 207.92 493.82 225.46 483.39 226.12 441.43 207.65 431.11 207.48 420.67 180.51 405.25 180.35 395.04 162.35 405.43 163.33 446.75 144.86 457.17"/><polygon class="cls-41" points="180.51 333.07 180.51 342.72 189.81 348.45 180.51 353.71 180.51 374.23 163.39 364.45 163.39 343.02 180.51 333.07"/><polygon class="cls-43" points="108.66 509.25 117.29 514.66 103.85 522.41 184.51 569.21 222.25 547.69 141.16 500.99 126.73 509.25 117.68 504.07 108.66 509.25"/><polygon class="cls-44" points="738.65 384.66 747.65 389.8 729.7 400.05 789.78 434.77 793.15 436.8 811.15 446.87 820.15 441.41 837.76 431.24 838.15 410.46 837.65 358.55 801.65 337.55 765.54 358.85 765.65 378.94 756.65 384.28 747.71 379.31 738.65 384.66"/><polygon class="cls-43" points="125.69 477.55 144.65 488.47 144.4 466.74 125.69 477.55"/><polygon class="cls-44" points="437.87 325.21 474.04 346.09 461.43 353.47 461.47 359.15 424.74 338.2 424.63 332.85 437.87 325.21"/></g></g></svg>