<svg xmlns="http://www.w3.org/2000/svg" xmlns:xlink="http://www.w3.org/1999/xlink" viewBox="0 0 754.07 769.51"><defs><style>.cls-1{fill:#535d6b;}.cls-2{fill:#7ab851;}.cls-3{fill:#f0e0c4;}.cls-4{fill:#e1d1b5;}.cls-11,.cls-41,.cls-5{fill:#605c53;}.cls-6{fill:url(#Безымянный_градиент_102);}.cls-7{fill:url(#Безымянный_градиент_71);}.cls-22,.cls-32,.cls-33,.cls-8{fill:#e6efef;}.cls-9{fill:#7c7c7c;}.cls-10{fill:#acadad;}.cls-11,.cls-30,.cls-32,.cls-69{opacity:0.5;}.cls-12{fill:#4d6683;}.cls-13{opacity:0.9;}.cls-14,.cls-15,.cls-22,.cls-36,.cls-41,.cls-42,.cls-43,.cls-44,.cls-53,.cls-54,.cls-61{opacity:0.25;}.cls-14{fill:url(#Безымянный_градиент_65);}.cls-15{fill:url(#Безымянный_градиент_65-2);}.cls-16{fill:url(#Безымянный_градиент_50);}.cls-17{fill:url(#Безымянный_градиент_33);}.cls-18{fill:url(#Безымянный_градиент_50-2);}.cls-19{fill:url(#Безымянный_градиент_33-2);}.cls-20{fill:url(#Безымянный_градиент_50-3);}.cls-21{fill:url(#Безымянный_градиент_33-3);}.cls-23{fill:#262522;}.cls-24{fill:#514f4c;}.cls-25{fill:#5d7842;}.cls-26{fill:#609136;}.cls-27{opacity:0.85;fill:url(#Безымянный_градиент_79);}.cls-28{fill:url(#Безымянный_градиент_50-4);}.cls-29{fill:url(#Безымянный_градиент_33-4);}.cls-30,.cls-61{fill:#3a3a3a;}.cls-31{fill:none;stroke:#3a3a3a;stroke-miterlimit:10;stroke-width:2px;}.cls-33{opacity:0.75;}.cls-34{fill:#cad1d1;}.cls-35{fill:#9b9b9b;}.cls-36{fill:url(#Безымянный_градиент_65-3);}.cls-37{fill:url(#Безымянный_градиент_50-5);}.cls-38{fill:url(#Безымянный_градиент_33-5);}.cls-39{fill:url(#Безымянный_градиент_78);}.cls-40{fill:#eaeaea;}.cls-42{fill:url(#Безымянный_градиент_65-4);}.cls-43{fill:url(#Безымянный_градиент_65-5);}.cls-44{fill:url(#Безымянный_градиент_65-6);}.cls-45{fill:url(#Безымянный_градиент_50-6);}.cls-46{fill:url(#Безымянный_градиент_33-6);}.cls-47{fill:url(#Безымянный_градиент_50-7);}.cls-48{fill:url(#Безымянный_градиент_33-7);}.cls-49{fill:url(#Безымянный_градиент_50-8);}.cls-50{fill:url(#Безымянный_градиент_33-8);}.cls-51{fill:url(#Безымянный_градиент_50-9);}.cls-52{fill:url(#Безымянный_градиент_33-9);}.cls-53{fill:url(#Безымянный_градиент_65-7);}.cls-54{fill:url(#Безымянный_градиент_65-8);}.cls-55{fill:url(#Безымянный_градиент_50-10);}.cls-56{fill:url(#Безымянный_градиент_33-10);}.cls-57{fill:url(#Безымянный_градиент_50-11);}.cls-58{fill:url(#Безымянный_градиент_33-11);}.cls-59{fill:url(#Безымянный_градиент_50-12);}.cls-60{fill:url(#Безымянный_градиент_33-12);}.cls-62{fill:url(#Безымянный_градиент_50-13);}.cls-63{fill:url(#Безымянный_градиент_33-13);}.cls-64{fill:#3f3f3f;}.cls-65{fill:#bababa;}.cls-66{fill:#d3d3d3;}.cls-67{fill:url(#Безымянный_градиент_103);}.cls-68{fill:#eaea1f;}.cls-69{fill:#515151;}</style><linearGradient id="Безымянный_градиент_102" x1="390.75" y1="297.36" x2="472.29" y2="288.37" gradientUnits="userSpaceOnUse"><stop offset="0" stop-color="#9b907e"/><stop offset="0" stop-color="#988d7c"/><stop offset="1" stop-color="#424242"/></linearGradient><linearGradient id="Безымянный_градиент_71" x1="409.55" y1="479.12" x2="469.16" y2="449.11" gradientUnits="userSpaceOnUse"><stop offset="0" stop-color="#b7a991"/><stop offset="1" stop-color="#3a3a3a"/></linearGradient><linearGradient id="Безымянный_градиент_65" x1="100.84" y1="272.41" x2="129.67" y2="289.43" gradientUnits="userSpaceOnUse"><stop offset="0" stop-color="#3a3a3a"/><stop offset="0.68" stop-color="#3a3a3a" stop-opacity="0"/></linearGradient><linearGradient id="Безымянный_градиент_65-2" x1="51.45" y1="301.15" x2="80.28" y2="318.17" xlink:href="#Безымянный_градиент_65"/><linearGradient id="Безымянный_градиент_50" x1="165.14" y1="285.84" x2="170.14" y2="285.83" gradientUnits="userSpaceOnUse"><stop offset="0" stop-color="#e6efef"/><stop offset="0.66" stop-color="#999"/><stop offset="1" stop-color="#acadad"/></linearGradient><linearGradient id="Безымянный_градиент_33" x1="165.14" y1="260.61" x2="170.14" y2="260.61" gradientUnits="userSpaceOnUse"><stop offset="0" stop-color="#e6efef"/><stop offset="1" stop-color="#cad1d1"/></linearGradient><linearGradient id="Безымянный_градиент_50-2" x1="46.11" y1="275.62" x2="51.11" y2="275.61" xlink:href="#Безымянный_градиент_50"/><linearGradient id="Безымянный_градиент_33-2" x1="46.11" y1="250.4" x2="51.11" y2="250.4" xlink:href="#Безымянный_градиент_33"/><linearGradient id="Безымянный_градиент_50-3" x1="95.41" y1="246.92" x2="100.41" y2="246.91" xlink:href="#Безымянный_градиент_50"/><linearGradient id="Безымянный_градиент_33-3" x1="95.41" y1="221.7" x2="100.41" y2="221.7" xlink:href="#Безымянный_градиент_33"/><linearGradient id="Безымянный_градиент_79" x1="83.09" y1="298.99" x2="142.79" y2="334.23" gradientUnits="userSpaceOnUse"><stop offset="0" stop-color="#3a3a3a"/><stop offset="0.93" stop-color="#3a3a3a" stop-opacity="0"/></linearGradient><linearGradient id="Безымянный_градиент_50-4" x1="113.65" y1="315.03" x2="118.65" y2="315.02" xlink:href="#Безымянный_градиент_50"/><linearGradient id="Безымянный_градиент_33-4" x1="113.65" y1="289.8" x2="118.65" y2="289.8" xlink:href="#Безымянный_градиент_33"/><linearGradient id="Безымянный_градиент_65-3" x1="305.73" y1="172.06" x2="320.37" y2="180.7" xlink:href="#Безымянный_градиент_65"/><linearGradient id="Безымянный_градиент_50-5" x1="303.12" y1="155.41" x2="306.22" y2="155.41" xlink:href="#Безымянный_градиент_50"/><linearGradient id="Безымянный_градиент_33-5" x1="303.12" y1="139.25" x2="306.22" y2="139.25" xlink:href="#Безымянный_градиент_33"/><linearGradient id="Безымянный_градиент_78" x1="288.09" y1="147.88" x2="322.92" y2="130.35" gradientUnits="userSpaceOnUse"><stop offset="0" stop-color="#cad1d1"/><stop offset="0.84" stop-color="#605c53"/><stop offset="1" stop-color="#cad1d1"/></linearGradient><linearGradient id="Безымянный_градиент_65-4" x1="146.55" y1="135.06" x2="175.38" y2="152.07" xlink:href="#Безымянный_градиент_65"/><linearGradient id="Безымянный_градиент_65-5" x1="220.5" y1="92.82" x2="249.33" y2="109.84" xlink:href="#Безымянный_градиент_65"/><linearGradient id="Безымянный_градиент_65-6" x1="232.61" y1="184.97" x2="261.43" y2="201.99" xlink:href="#Безымянный_градиент_65"/><linearGradient id="Безымянный_градиент_50-6" x1="140.99" y1="109.44" x2="145.99" y2="109.43" xlink:href="#Безымянный_градиент_50"/><linearGradient id="Безымянный_градиент_33-6" x1="140.99" y1="84.22" x2="145.99" y2="84.22" xlink:href="#Безымянный_градиент_33"/><linearGradient id="Безымянный_градиент_50-7" x1="227.22" y1="159.53" x2="232.22" y2="159.51" xlink:href="#Безымянный_градиент_50"/><linearGradient id="Безымянный_градиент_33-7" x1="227.22" y1="134.3" x2="232.22" y2="134.3" xlink:href="#Безымянный_градиент_33"/><linearGradient id="Безымянный_градиент_50-8" x1="214.93" y1="67.22" x2="219.93" y2="67.21" xlink:href="#Безымянный_градиент_50"/><linearGradient id="Безымянный_градиент_33-8" x1="214.93" y1="41.99" x2="219.93" y2="41.99" xlink:href="#Безымянный_градиент_33"/><linearGradient id="Безымянный_градиент_50-9" x1="311.67" y1="207.43" x2="316.67" y2="207.42" xlink:href="#Безымянный_градиент_50"/><linearGradient id="Безымянный_градиент_33-9" x1="311.67" y1="182.21" x2="316.67" y2="182.21" xlink:href="#Безымянный_градиент_33"/><linearGradient id="Безымянный_градиент_65-7" x1="291.2" y1="52.09" x2="320.03" y2="69.11" xlink:href="#Безымянный_градиент_65"/><linearGradient id="Безымянный_градиент_65-8" x1="377.25" y1="102" x2="406.08" y2="119.02" xlink:href="#Безымянный_градиент_65"/><linearGradient id="Безымянный_градиент_50-10" x1="285.64" y1="26.48" x2="290.64" y2="26.46" xlink:href="#Безымянный_градиент_50"/><linearGradient id="Безымянный_градиент_33-10" x1="285.64" y1="1.25" x2="290.64" y2="1.25" xlink:href="#Безымянный_градиент_33"/><linearGradient id="Безымянный_градиент_50-11" x1="371.87" y1="76.56" x2="376.87" y2="76.55" xlink:href="#Безымянный_градиент_50"/><linearGradient id="Безымянный_градиент_33-11" x1="371.87" y1="51.33" x2="376.87" y2="51.33" xlink:href="#Безымянный_градиент_33"/><linearGradient id="Безымянный_градиент_50-12" x1="456.32" y1="124.47" x2="461.32" y2="124.45" xlink:href="#Безымянный_градиент_50"/><linearGradient id="Безымянный_градиент_33-12" x1="456.32" y1="99.24" x2="461.32" y2="99.24" xlink:href="#Безымянный_градиент_33"/><linearGradient id="Безымянный_градиент_50-13" x1="385.61" y1="167" x2="390.61" y2="166.99" xlink:href="#Безымянный_градиент_50"/><linearGradient id="Безымянный_градиент_33-13" x1="385.61" y1="141.77" x2="390.61" y2="141.77" xlink:href="#Безымянный_градиент_33"/><linearGradient id="Безымянный_градиент_103" x1="416.48" y1="485.44" x2="448.91" y2="517.27" gradientUnits="userSpaceOnUse"><stop offset="0" stop-color="#515151" stop-opacity="0"/><stop offset="0.16" stop-color="#515151" stop-opacity="0.11"/><stop offset="0.43" stop-color="#515151" stop-opacity="0.42"/><stop offset="0.49" stop-color="#515151" stop-opacity="0.5"/></linearGradient></defs><g id="Layer_2" data-name="Layer 2"><g id="Illustration"><polygon class="cls-1" points="0 562.76 358.1 769.51 754.07 540.75 395.5 334.24 0 562.76"/><polygon class="cls-2" points="16.82 491.45 358.95 688.97 728.5 475.47 682.82 449.86 682.8 439.33 394.67 273.12 16.82 491.45"/><path class="cls-3" d="M133.82,132.91,246.29,68s6.32-3.76,24.26-14a97.94,97.94,0,0,1,27-10.66c27.54-6.23,42.72,1,42.72,1L529.82,153.7l-20.48-6.3-22.44,2-13.1,2.77A96.14,96.14,0,0,0,451,160.06l-25.56,12.61L383,197.17l-69.24,39.67Z"/><polygon class="cls-4" points="133.82 496.64 313.82 600.57 313.71 236.84 133.82 132.91 133.82 496.64"/><path class="cls-5" d="M569.46,453.62,494.9,496.21l-64-87.91-27.08,15.53.24,124.63-90.25,52.1-.11-363.72L434,167.78s81.43-48.08,106.37-1.59a80,80,0,0,1,4.54,10l-15,8.85v31.11l9.14-5.43,8.86,5.22c0,.29.27,9.63.22,16.51-.22,29.35-11.77,54.75-26.71,78.6l-21.07,33.62Z"/><path class="cls-6" d="M386,361.42V257.82l45.24-26.27c16.27-9.52,30.11,3.55,34.74,8.95,7.37,9.24,7.27,26.54,4.88,38-2.86,13.75-15.35,43-35.24,54.27C424.68,339.29,386,361.42,386,361.42Z"/><polygon class="cls-7" points="494.91 496.21 403.88 444.58 403.84 423.83 430.92 408.3 494.91 496.21"/><polygon class="cls-8" points="295.23 247.76 259.99 226.47 259.77 330.47 295.88 351.22 295.23 247.76"/><polygon class="cls-9" points="250.69 221.28 259.99 226.47 259.77 330.47 250.9 335.65 250.69 221.28"/><polygon class="cls-10" points="296.04 361.42 295.88 351.22 259.77 330.47 250.9 335.65 296.04 361.42"/><polygon class="cls-8" points="232.5 211.22 197.25 189.93 197.04 293.93 233.15 314.68 232.5 211.22"/><polygon class="cls-9" points="187.96 184.74 197.25 189.93 197.04 293.93 188.17 299.11 187.96 184.74"/><polygon class="cls-10" points="233.31 324.88 233.15 314.68 197.04 293.93 188.17 299.11 233.31 324.88"/><polygon class="cls-11" points="188.17 299.11 205.8 299.25 197.04 293.93 188.17 299.11"/><polygon class="cls-11" points="251.02 335.58 268.64 335.72 259.89 330.39 251.02 335.58"/><polygon class="cls-8" points="331.99 247.44 367.86 226.47 368 330.47 331.99 351.22 331.99 247.44"/><polygon class="cls-9" points="376.88 221.28 376.99 335.65 368 330.47 367.86 226.47 376.88 221.28"/><polygon class="cls-10" points="331.99 351.22 331.99 361.64 376.99 335.65 368 330.47 331.99 351.22"/><polygon class="cls-12" points="170.13 309.4 115.82 340.76 43.95 299.11 133.7 247.16 133.8 278.29 133.74 288.84 170.13 309.4"/><g class="cls-13"><polygon class="cls-3" points="142.98 304.48 151.85 309.81 142.82 314.68 133.72 309.52 142.98 304.48"/><polygon class="cls-3" points="124.89 304.3 133.76 309.63 124.73 314.5 115.62 309.34 124.89 304.3"/><polygon class="cls-3" points="124.89 314.68 133.76 320.02 124.73 324.89 115.62 319.73 124.89 314.68"/><polygon class="cls-3" points="98.1 309.4 106.97 314.74 97.95 319.61 88.84 314.44 98.1 309.4"/><polygon class="cls-3" points="107.17 293.9 116.04 299.24 107.01 304.11 97.91 298.95 107.17 293.9"/><polygon class="cls-3" points="116.02 288.86 124.89 294.19 115.86 299.06 106.75 293.9 116.02 288.86"/><polygon class="cls-3" points="115.82 268.02 124.69 273.35 115.67 278.22 106.56 273.06 115.82 268.02"/><polygon class="cls-3" points="116.02 278.44 124.89 283.77 115.86 288.64 106.75 283.48 116.02 278.44"/><polygon class="cls-3" points="124.89 252.3 133.76 257.64 124.73 262.51 115.62 257.35 124.89 252.3"/></g><polygon class="cls-9" points="143.01 158.79 151.85 164.28 151.74 288.84 142.71 293.93 143.01 158.79"/><polygon class="cls-8" points="170.13 174.66 151.85 164.28 151.74 288.84 170.13 299.01 170.13 174.66"/><polygon class="cls-10" points="170.13 309.4 170.13 299.01 151.74 288.84 142.71 293.93 170.13 309.4"/><polygon class="cls-11" points="143.04 294.03 160.66 294.17 151.9 288.84 143.04 294.03"/><polygon class="cls-4" points="43.95 299.11 43.82 309.4 115.82 351.15 115.82 340.76 43.95 299.11"/><polygon class="cls-5" points="170.13 309.4 170.13 319.79 115.82 351.15 115.82 340.76 170.13 309.4"/><polygon class="cls-14" points="95.7 271.47 126.63 289.3 129.22 287.07 98.44 269.65 95.7 271.47"/><polygon class="cls-15" points="46.31 300.21 77.23 318.04 79.82 315.81 49.05 298.39 46.31 300.21"/><path class="cls-16" d="M165.14,260.61v49.2c0,.69,1.11,1.25,2.5,1.25s2.5-.56,2.5-1.25v-49.2Z"/><ellipse class="cls-17" cx="167.64" cy="260.61" rx="2.5" ry="1.25"/><path class="cls-18" d="M46.11,250.4v49.19c0,.69,1.12,1.25,2.5,1.25s2.5-.56,2.5-1.25V250.4Z"/><ellipse class="cls-19" cx="48.61" cy="250.4" rx="2.5" ry="1.25"/><path class="cls-20" d="M95.41,221.7v49.19c0,.69,1.11,1.25,2.5,1.25s2.5-.56,2.5-1.25V221.7Z"/><ellipse class="cls-21" cx="97.91" cy="221.7" rx="2.5" ry="1.25"/><polygon class="cls-22" points="118.65 292.03 165.87 263.45 165.16 308.25 118.62 335.65 118.65 292.03"/><polygon class="cls-22" points="50.26 253.91 113.65 292.28 113.65 336.22 50.26 299.01 50.26 253.91"/><polygon class="cls-22" points="96.33 224.41 96.01 267.35 51.25 293.08 51.12 253.41 96.33 224.41"/><polygon class="cls-22" points="100.41 222.43 133.72 203.38 133.72 245.38 100.41 264.71 100.41 222.43"/><polygon class="cls-22" points="79.34 236.01 90.77 271.06 88.46 272.39 74.97 238.81 79.34 236.01"/><polygon class="cls-22" points="96.33 225.11 96.01 268.05 51.25 293.79 51.12 254.11 96.33 225.11"/><g id="зелень"><polygon class="cls-4" points="59.65 298.03 59.65 277.21 77.54 287.54 77.65 308.2 59.65 298.03"/><polygon class="cls-5" points="95.65 277.21 77.54 287.54 77.65 308.2 95.52 297.92 95.65 277.21"/><polygon class="cls-3" points="77.65 266.35 95.65 277.21 77.54 287.54 59.65 277.21 77.65 266.35"/><polygon class="cls-23" points="63.92 277.21 77.65 285.2 91.24 277.32 77.92 269.65 63.92 277.21"/><polygon class="cls-24" points="66.49 278.7 76.45 273.73 81.29 274.62 88.71 278.79 91.24 277.32 86.31 274.45 78.13 270.95 67.5 275.28 63.92 277.21 66.49 278.7"/><polygon class="cls-25" points="85.66 212.09 96.78 219.25 101.17 230.79 101.07 241.93 101.96 253.91 93.13 265.36 88.68 274.43 78.62 282.46 80.03 266.35 75.38 252.71 78.19 239 83.49 230.45 85.11 217.81 85.66 212.09"/><polygon class="cls-26" points="81.43 202.89 67.34 224.41 64.68 240.08 67.49 248.73 73.22 266.78 68.65 276.86 73.97 279.43 78.62 282.46 84.68 276.08 87.77 258.03 79.92 253.41 85.17 242.68 89.54 233.55 90.41 223.22 89.63 211.32 81.43 202.89 70.39 209.32 81.43 202.89"/><polygon class="cls-2" points="68.65 276.86 58.89 263.51 52.09 250.4 50.65 235.65 58.26 219.01 69.6 209.11 81.43 202.89 67.77 227.22 65.87 242.98 70.46 250.18 72.46 259.42 74.16 268.45 68.65 276.86"/><path class="cls-27" d="M150.89,320.51,148.68,315,136,310.78s-10.49-3.67-10.81-3.24-7.25,2.7-8.54,2.59c-.91-.07-5,.33-7.29.58l4.26-2.5L95.52,297.92,77.65,308.21l18,10.57L98,317.4,96.3,329.48l19.52,11.28Z"/></g><path class="cls-28" d="M113.65,289.8V339c0,.69,1.12,1.25,2.5,1.25s2.5-.56,2.5-1.25V289.8Z"/><ellipse class="cls-29" cx="116.15" cy="289.8" rx="2.5" ry="1.25"/><polygon class="cls-22" points="50.26 253.91 113.65 292.28 113.65 336.22 50.26 299.01 50.26 253.91"/><polygon class="cls-22" points="118.65 292.73 165.87 264.15 165.16 308.95 118.62 336.36 118.65 292.73"/><polygon class="cls-22" points="100.41 223.13 133.72 204.09 133.72 246.09 100.41 265.41 100.41 223.13"/><polygon class="cls-22" points="50.26 254.61 113.65 292.98 113.65 336.93 50.26 299.71 50.26 254.61"/><polygon class="cls-22" points="60.28 305.6 90.47 278.95 97.09 282.96 64.54 308.1 60.28 305.6"/><polygon class="cls-22" points="102.71 286.36 70.09 311.35 91.72 324.06 112.59 292.34 102.71 286.36"/><polygon class="cls-22" points="127.1 287.62 123.3 333.6 127.09 331.37 140.04 279.79 127.1 287.62"/><polygon class="cls-22" points="142.71 277.52 146.82 275.03 140.04 323.87 135.74 326.4 142.71 277.52"/><polygon class="cls-12" points="151.85 132.9 287.23 54.79 448.83 148.5 313.97 226.36 151.85 132.9"/><g class="cls-13"><polygon class="cls-3" points="187.59 143.17 196.98 148.41 205.93 143.26 196.82 137.89 187.59 143.17"/><polygon class="cls-3" points="214.67 148.59 224.05 153.83 233 148.68 223.9 143.3 214.67 148.59"/><polygon class="cls-3" points="224.14 121.84 233.53 127.08 242.47 121.93 233.37 116.56 224.14 121.84"/><polygon class="cls-3" points="241.95 174.2 251.33 179.44 260.28 174.29 251.18 168.91 241.95 174.2"/><polygon class="cls-3" points="196.76 148.2 206.14 153.44 215.09 148.28 205.99 142.91 196.76 148.2"/><polygon class="cls-3" points="358.7 127.82 368.08 133.06 377.03 127.91 367.93 122.53 358.7 127.82"/><polygon class="cls-3" points="358.83 137.95 368.21 143.19 377.16 138.04 368.06 132.67 358.83 137.95"/><polygon class="cls-3" points="368 163.7 377.38 168.94 386.33 163.78 377.23 158.41 368 163.7"/><polygon class="cls-3" points="349.78 174.44 359.17 179.68 368.12 174.53 359.01 169.16 349.78 174.44"/><polygon class="cls-3" points="251.85 96.41 261.24 101.64 270.19 96.49 261.08 91.12 251.85 96.41"/><polygon class="cls-3" points="250.6 117.39 259.99 122.63 268.94 117.48 259.83 112.11 250.6 117.39"/><polygon class="cls-3" points="295.5 194.99 304.88 200.22 313.83 195.07 304.73 189.7 295.5 194.99"/><polygon class="cls-3" points="304.81 158.44 314.2 163.67 323.15 158.52 314.04 153.15 304.81 158.44"/><polygon class="cls-3" points="313.98 216.16 323.36 221.4 332.31 216.25 323.21 210.88 313.98 216.16"/><polygon class="cls-3" points="358.7 189.72 368.08 194.96 377.03 189.81 367.93 184.44 358.7 189.72"/><polygon class="cls-3" points="241.52 164.22 250.9 169.46 259.85 164.3 250.75 158.93 241.52 164.22"/></g><polygon class="cls-4" points="151.85 132.9 160.82 138.07 286.9 65.28 287.23 54.79 151.85 132.9"/><polygon class="cls-4" points="439.88 153.6 448.83 148.5 287.23 54.79 286.9 65.28 439.88 153.6"/><polygon class="cls-30" points="151.85 132.9 169.82 143.26 295.82 70.43 286.9 54.79 151.85 132.9"/><polygon class="cls-4" points="295.99 80.74 349.82 111.87 313.99 133.03 259.82 101.63 295.99 80.74"/><polygon class="cls-5" points="295.99 80.74 295.99 122.59 259.82 101.63 295.99 80.74"/><polygon class="cls-3" points="295.99 122.59 305.17 117.44 313.98 122.53 304.97 127.8 295.99 122.59"/><polygon class="cls-3" points="322.79 117.37 331.43 122.65 313.92 133.05 304.86 127.8 322.79 117.37"/><polygon class="cls-11" points="295.99 80.74 318.39 119.93 304.97 127.8 259.82 101.63 295.99 80.74"/><polygon class="cls-5" points="286.82 460.11 286.92 470.53 259.82 486.15 259.82 475.76 286.82 460.11"/><polygon class="cls-4" points="205.9 444.49 259.63 475.76 259.63 486.15 205.9 455.19 205.9 444.49"/><polygon class="cls-3" points="205.9 444.49 233.31 428.81 286.82 460.11 259.63 475.76 205.9 444.49"/><polygon class="cls-8" points="286.8 470.42 286.51 564.03 250.84 543.28 250.7 480.96 259.51 486.04 286.8 470.42"/><polygon class="cls-9" points="232.74 470.59 251.03 481.13 250.84 543.28 232.97 553.82 232.74 470.59"/><polygon class="cls-10" points="232.77 553.77 286.38 584.72 286.63 564.15 250.63 543.22 232.77 553.77"/><path class="cls-31" d="M284.57,503.89h0c-2.3-.75-4.6.11-4.6,2.47v24.13a3,3,0,0,0,1.48,2.56l3.12,1.8"/><polygon class="cls-30" points="286.82 460.11 304.85 491.44 304.98 522.53 214.82 470.53 205.9 455.19 259.63 486.15 259.63 475.76 286.82 460.11"/><polygon class="cls-32" points="151.85 371.86 151.85 455 205.72 485.77 205.72 402.96 151.85 371.86"/><polygon class="cls-9" points="142.98 366.65 151.85 371.86 151.85 455 142.98 460.36 142.98 366.65"/><polygon class="cls-10" points="205.72 485.77 206.57 496.21 142.98 460.36 151.85 455 205.72 485.77"/><polygon class="cls-11" points="143.04 460.38 160.66 460.51 151.9 455.19 143.04 460.38"/><polygon class="cls-11" points="232.77 553.77 268.87 553.77 250.88 543.22 232.77 553.77"/><polygon class="cls-33" points="160.94 377.2 160.94 449.81 205.72 423.95 205.72 402.96 160.94 377.2"/><polygon class="cls-8" points="260.19 362.11 260.19 382.89 296.02 403.76 295.52 382.2 260.19 362.11"/><polygon class="cls-9" points="250.82 356.88 260.19 362.11 260.19 382.89 250.82 388.05 250.82 356.88"/><polygon class="cls-10" points="296.02 403.76 296.13 414.21 250.82 388.05 260.19 382.89 296.02 403.76"/><polygon class="cls-8" points="260.19 403.78 260.19 424.57 296.02 445.44 295.52 423.87 260.19 403.78"/><polygon class="cls-9" points="250.82 398.55 260.19 403.78 260.19 424.57 250.82 429.73 250.82 398.55"/><polygon class="cls-10" points="296.02 445.44 296.13 455.89 250.82 429.73 260.19 424.57 296.02 445.44"/><polygon class="cls-11" points="251.38 387.45 269 387.59 260.24 382.26 251.38 387.45"/><polygon class="cls-11" points="250.92 429.51 269 429.89 260.24 424.57 250.92 429.51"/><polygon class="cls-8" points="430.9 356.2 457.82 340.63 457.93 371.98 430.9 387.57 430.9 356.2"/><polygon class="cls-9" points="466.99 335.65 457.82 340.63 457.93 371.98 466.99 377.04 466.99 335.65"/><polygon class="cls-10" points="430.9 387.57 430.9 397.87 466.99 377.04 457.93 371.98 430.9 387.57"/><polygon class="cls-8" points="484.8 210.95 484.8 242.01 529.82 216.14 529.82 185.03 484.8 210.95"/><polygon class="cls-10" points="484.8 242.01 484.8 252.41 547.82 215.93 538.96 210.71 484.8 242.01"/><polygon class="cls-10" points="529.82 205.43 538.96 210.71 529.82 216.14 529.82 205.43"/><polygon class="cls-11" points="170.13 309.81 205.72 382.27 205.72 392.66 160.94 418.63 133.82 402.96 133.72 341.17 115.82 351.15 115.82 340.76 170.13 309.81"/><polygon class="cls-34" points="313.79 174.29 331.84 163.92 349.87 174.24 331.82 184.64 313.79 174.29"/><polygon class="cls-5" points="331.97 205.49 331.84 184.63 349.87 174.24 349.87 195.02 331.97 205.49"/><polygon class="cls-9" points="313.79 174.29 313.82 195.08 331.97 205.49 331.84 184.63 313.79 174.29"/><polygon class="cls-34" points="259.95 174.23 278 163.86 296.03 174.18 277.98 184.59 259.95 174.23"/><polygon class="cls-5" points="278.14 205.43 278 184.57 296.03 174.18 296.03 194.96 278.14 205.43"/><polygon class="cls-9" points="259.95 174.23 259.98 195.02 278.14 205.43 278 184.57 259.95 174.23"/><polygon class="cls-34" points="313.93 133 331.99 122.62 350.01 132.94 331.96 143.35 313.93 133"/><polygon class="cls-5" points="332.12 164.19 331.99 143.33 350.01 132.94 350.01 153.72 332.12 164.19"/><polygon class="cls-9" points="313.93 133 313.96 153.78 332.12 164.19 331.99 143.33 313.93 133"/><polygon class="cls-34" points="259.96 133 278.02 122.62 296.05 132.94 277.99 143.35 259.96 133"/><polygon class="cls-5" points="278.15 164.19 278.02 143.33 296.05 132.94 296.05 153.72 278.15 164.19"/><polygon class="cls-35" points="292.1 171.86 292.1 170.89 304.57 178.09 304.56 179.19 292.1 171.86"/><polygon class="cls-5" points="317.12 170.89 317.11 171.98 304.56 179.19 304.57 178.09 317.12 170.89"/><polygon class="cls-10" points="292.1 170.89 304.57 178.09 317.07 170.91 304.56 163.68 292.1 170.89"/><polygon class="cls-36" points="303.35 171.19 317.76 180.75 320.32 179.19 305.51 170.33 303.35 171.19"/><path class="cls-37" d="M303.12,139.25v31.52c0,.44.69.8,1.55.8s1.55-.36,1.55-.8V139.25Z"/><ellipse class="cls-38" cx="304.67" cy="139.25" rx="1.55" ry="0.8"/><path class="cls-39" d="M304.67,148.6c-11.36,0-20.6-5.55-21.13-12.52,0,.21-.06.41-.06.63,0,7.25,9.49,13.14,21.19,13.14s21.18-5.89,21.18-13.14c0-.22,0-.42-.05-.63C325.27,143.05,316,148.6,304.67,148.6Z"/><ellipse class="cls-40" cx="304.67" cy="136.08" rx="21.13" ry="12.52"/><polygon class="cls-9" points="259.96 133 259.99 153.78 278.15 164.19 278.02 143.33 259.96 133"/><g id="крыша_стекло" data-name="крыша стекло"><polygon class="cls-41" points="312.28 232.21 317.09 234.91 320.28 233.07 315.84 230.79 312.28 232.21"/><polygon class="cls-42" points="141.41 134.12 172.34 151.94 174.93 149.71 144.15 132.29 141.41 134.12"/><polygon class="cls-43" points="215.36 91.89 246.28 109.71 248.87 107.48 218.09 90.06 215.36 91.89"/><polygon class="cls-44" points="227.46 184.03 258.39 201.86 260.98 199.63 230.2 182.21 227.46 184.03"/><path class="cls-45" d="M141,84.22v49.19c0,.69,1.12,1.25,2.5,1.25s2.5-.56,2.5-1.25V84.22Z"/><ellipse class="cls-46" cx="143.49" cy="84.22" rx="2.5" ry="1.25"/><path class="cls-47" d="M227.22,134.3v49.2c0,.69,1.12,1.25,2.5,1.25s2.5-.56,2.5-1.25V134.3Z"/><ellipse class="cls-48" cx="229.72" cy="134.3" rx="2.5" ry="1.25"/><path class="cls-49" d="M214.93,42v49.2c0,.69,1.12,1.25,2.5,1.25s2.5-.56,2.5-1.25V42Z"/><ellipse class="cls-50" cx="217.43" cy="41.99" rx="2.5" ry="1.25"/><path class="cls-51" d="M311.67,182.21V231.4c0,.69,1.12,1.25,2.5,1.25s2.5-.56,2.5-1.25V182.21Z"/><ellipse class="cls-52" cx="314.17" cy="182.21" rx="2.5" ry="1.25"/><polygon class="cls-22" points="144.58 86.84 227.22 136.27 227.22 180.57 144.9 132.09 144.58 86.84"/><polygon class="cls-22" points="231.09 138.22 311.67 185.28 311.67 229.58 231.41 183.46 231.09 138.22"/><polygon class="cls-41" points="456.93 149.25 464.93 153.6 468.56 152.32 460.49 147.82 456.93 149.25"/><polygon class="cls-53" points="286.06 51.15 316.99 68.97 319.57 66.74 288.8 49.33 286.06 51.15"/><polygon class="cls-54" points="372.11 101.06 403.04 118.89 405.63 116.66 374.85 99.24 372.11 101.06"/><path class="cls-55" d="M285.64,1.25v49.2c0,.69,1.12,1.25,2.5,1.25s2.5-.56,2.5-1.25V1.25Z"/><ellipse class="cls-56" cx="288.14" cy="1.25" rx="2.5" ry="1.25"/><path class="cls-57" d="M371.87,51.33v49.2c0,.69,1.12,1.25,2.5,1.25s2.5-.56,2.5-1.25V51.33Z"/><ellipse class="cls-58" cx="374.37" cy="51.33" rx="2.5" ry="1.25"/><path class="cls-59" d="M456.32,99.24v49.2c0,.69,1.12,1.25,2.5,1.25s2.5-.56,2.5-1.25V99.24Z"/><ellipse class="cls-60" cx="458.82" cy="99.24" rx="2.5" ry="1.25"/><polygon class="cls-22" points="289.23 4.4 371.87 53.3 371.87 97.61 289.55 49.12 289.23 4.4"/><polygon class="cls-22" points="375.74 55.25 456.32 102.31 456.32 146.62 376.06 100.49 375.74 55.25"/><polygon class="cls-22" points="375.74 54.04 456.32 101.11 456.32 145.41 376.06 99.29 375.74 54.04"/><polygon class="cls-22" points="145.99 86.05 215.93 46.68 215.93 89.29 145.99 131.01 145.99 86.05"/><polygon class="cls-22" points="219.93 44.01 286.63 4.84 286.63 49.33 219.93 87.6 219.93 44.01"/><polygon class="cls-22" points="376.01 92.47 396.44 66.13 404.29 70.83 388.56 106.47 376.06 100.49 376.01 92.47"/><polygon class="cls-22" points="411.96 119.92 437.01 89.83 422 81.06 411.96 119.92"/><g id="зелень-2" data-name="зелень"><polygon class="cls-4" points="383.51 153.5 383.51 132.68 401.4 143.01 401.51 163.67 383.51 153.5"/><polygon class="cls-5" points="419.51 132.68 401.4 143.01 401.51 163.67 419.38 153.39 419.51 132.68"/><polygon class="cls-3" points="401.51 121.82 419.51 132.68 401.4 143.01 383.51 132.68 401.51 121.82"/><polygon class="cls-23" points="387.78 132.68 401.51 140.67 415.1 132.79 401.78 125.12 387.78 132.68"/><polygon class="cls-24" points="390.35 134.17 400.31 129.2 405.15 130.09 412.57 134.26 415.1 132.79 410.17 129.91 401.99 126.42 391.36 130.75 387.78 132.68 390.35 134.17"/><polygon class="cls-25" points="409.52 67.56 420.64 74.72 425.04 86.9 424.49 97.61 418.74 109.06 420.32 119.92 417.25 128.66 402.48 137.93 403.89 121.82 399.24 108.18 402.05 94.47 407.35 85.92 408.97 73.28 409.52 67.56"/><polygon class="cls-26" points="403.82 58.17 395.02 84.52 388.54 95.55 391.35 104.2 397.08 122.25 392.51 132.32 397.83 134.9 402.48 137.93 408.54 131.55 409.29 119.69 403.78 108.88 404.1 96.2 413.4 89.02 414.27 78.69 415.1 72.14 412.14 64.97 405.63 56.93 403.82 58.17"/><polygon class="cls-2" points="392.51 132.32 379.39 125.12 374.37 108.35 376.01 87.22 384.74 75.95 393.46 64.58 403.82 58.17 396.07 83.86 389.73 98.45 394.32 105.65 396.32 114.89 398.02 123.92 392.51 132.32"/><polygon class="cls-61" points="439.13 164.78 419.38 153.39 401.51 163.67 421.13 175.36 439.13 164.78"/></g><polygon class="cls-61" points="386.04 191.67 389.11 193.53 392.06 191.85 388.77 189.84 386.04 191.67"/><path class="cls-62" d="M385.61,141.77V191c0,.69,1.12,1.25,2.5,1.25s2.5-.56,2.5-1.25v-49.2Z"/><ellipse class="cls-63" cx="388.11" cy="141.77" rx="2.5" ry="1.25"/><polygon class="cls-22" points="316.67 185.83 386.61 146.46 386.61 189.07 316.67 230.79 316.67 185.83"/><polygon class="cls-22" points="390.61 143.79 457.31 104.63 457.31 149.11 390.61 187.38 390.61 143.79"/><polygon class="cls-22" points="144.58 85.64 227.22 135.07 227.22 179.37 144.9 130.88 144.58 85.64"/><polygon class="cls-22" points="231.09 137.01 311.67 184.07 311.67 228.38 231.41 182.25 231.09 137.01"/><polygon class="cls-22" points="289.23 3.19 371.87 52.1 371.87 96.4 289.55 47.91 289.23 3.19"/><polygon class="cls-22" points="145.99 84.84 215.93 45.48 215.93 88.08 145.99 129.8 145.99 84.84"/><polygon class="cls-22" points="219.93 42.8 286.63 3.64 286.63 48.12 219.93 86.4 219.93 42.8"/><polygon class="cls-22" points="316.67 184.62 386.61 145.26 386.61 187.87 316.67 229.58 316.67 184.62"/><polygon class="cls-22" points="390.61 142.58 457.31 103.42 457.31 147.9 390.61 186.18 390.61 142.58"/><polygon class="cls-22" points="160.26 141.14 184.38 109.44 205.33 121.97 183.92 153.87 160.26 141.14"/><polygon class="cls-22" points="246.33 192.03 266.31 158.79 275.71 164.28 259.99 198.68 246.33 192.03"/><polygon class="cls-22" points="279.66 167 262.63 200.2 268.18 203.38 280.37 167 279.66 167"/><polygon class="cls-22" points="330.55 178.02 342.72 215.25 362.04 204.09 342.94 169.84 330.55 178.02"/><polygon class="cls-22" points="374.37 153.6 385.61 182.21 385.61 173.87 377.93 151.38 374.37 153.6"/><polygon class="cls-22" points="400.35 138.07 416.03 171.59 425.44 167 400.35 138.07"/><polygon class="cls-22" points="418.74 126.07 441.22 157.14 448.8 153.14 426.32 121.62 418.74 126.07"/><polygon class="cls-22" points="168.32 72.27 188.92 104.2 210.65 92.44 202.76 52.89 168.32 72.27"/><polygon class="cls-22" points="230.12 36.82 247.06 70.83 255.59 65.94 233.72 34.7 230.12 36.82"/><polygon class="cls-22" points="241.45 30.17 269.12 58.17 280.12 51.86 263.34 17.32 241.45 30.17"/><polygon class="cls-22" points="315.24 18.59 295.36 51.33 308.63 59.15 326.53 26.47 315.24 18.59"/><polygon class="cls-22" points="371.87 64.52 355.4 87.91 366.56 94.48 371.87 81.3 371.87 64.52"/></g><polygon class="cls-61" points="278.14 205.43 295.82 215.9 313.98 205.49 296.03 194.96 278.14 205.43"/><polygon class="cls-61" points="332.09 164.28 349.78 174.74 367.94 164.34 349.99 153.81 332.09 164.28"/><polygon class="cls-61" points="331.97 205.49 340.79 211 358.95 200.59 349.87 195.24 331.97 205.49"/><polygon class="cls-61" points="278.14 164.19 295.82 174.66 313.98 164.25 296.03 153.73 278.14 164.19"/><polygon class="cls-10" points="16.87 512.21 16.82 491.45 358.95 688.97 358.95 709.76 16.87 512.21"/><polygon class="cls-9" points="737.24 480.37 737.24 491.2 358.95 709.76 358.95 688.97 728.25 475.62 737.24 480.37"/><polygon class="cls-64" points="304.56 667.82 682.82 449.86 737.24 480.37 358.95 698.92 304.56 667.82"/><polygon class="cls-65" points="305.04 657.55 304.56 667.82 682.82 449.86 682.8 439.33 305.04 657.55"/><polygon class="cls-66" points="295.99 652.84 295.99 662.83 304.56 667.82 305.04 657.55 295.99 652.84"/><polygon class="cls-8" points="674.16 434.09 682.8 439.33 305.04 657.55 295.99 652.84 674.16 434.09"/><polygon class="cls-8" points="349.93 683.44 358.95 688.97 376.85 678.47 367.66 673.17 349.93 683.44"/><polygon class="cls-8" points="395.23 657.49 404.25 663.03 422.15 652.52 412.96 647.22 395.23 657.49"/><polygon class="cls-8" points="440.53 631.55 449.54 637.08 467.44 626.57 458.25 621.28 440.53 631.55"/><polygon class="cls-8" points="485.82 605.6 494.84 611.13 512.74 600.63 503.55 595.33 485.82 605.6"/><polygon class="cls-8" points="531.12 579.65 540.14 585.19 558.04 574.68 548.85 569.38 531.12 579.65"/><polygon class="cls-8" points="576.42 553.71 585.43 559.24 603.34 548.74 594.15 543.44 576.42 553.71"/><polygon class="cls-8" points="621.72 527.76 630.73 533.3 648.63 522.79 639.45 517.49 621.72 527.76"/><polygon class="cls-8" points="667.01 501.82 676.03 507.35 693.93 496.84 684.74 491.55 667.01 501.82"/><polygon class="cls-67" points="403.75 484.94 440.51 465.36 466.76 480.25 404.05 527.77 403.75 484.94"/><path class="cls-34" d="M178.77,585l54-31.18,117.16,67.51L296,652.37Zm143.9,41.6,9.07,5.14,9-5.1-9-5.19Zm0-10.42,9.07,5.15,9-5.11-9-5.19Zm-17.89,10.42,9.07,5.14,9-5.1-9-5.19Zm0,10.29,9.07,5.15,9-5.11-9-5.19Zm-17.84,0L296,642l9-5.11-9-5.19Zm0,10.38,9.07,5.15,9-5.11-9-5.19Zm17.54-31.07,9.07,5.15,9-5.11-9-5.19Zm0-10.42,9.07,5.15,9-5.11-9-5.19Zm-17.89,10.42,9.07,5.15,9-5.11-9-5.19Zm0,10.29,9.07,5.15,9-5.11-9-5.18Zm-17.84,0,9.07,5.15,9-5.11-9-5.18Zm0,10.38,9.07,5.15,9-5.11-9-5.19Zm17.53-31.07,9.07,5.15,9-5.11-9-5.19Zm0-10.42,9.07,5.15,9-5.11-9-5.19Zm-17.89,10.42,9.07,5.15,9-5.11-9-5.19Zm0,10.29,9.07,5.15,9-5.11-9-5.18Zm-17.84,0,9.07,5.15,9-5.11-9-5.18Zm0,10.38,9.07,5.15,9-5.11-9-5.18Zm17.54-31.07,9.06,5.15,9-5.11-9-5.19Zm.43-10.51,9.07,5.15,9-5.11-9-5.19Zm-17.89,10.42,9.07,5.14,9-5.1-9-5.19Zm-.43,10.38,9.07,5.15,9-5.11-9-5.18Zm-17.4-.09,9.07,5.15,9-5.11-9-5.19ZM232.36,616l9.07,5.15,9-5.11-9-5.18Zm17.84-31,9.07,5.15,9-5.11-9-5.19Zm.28-10.62,9.07,5.15,9-5.11-9-5.19Zm-17.89,10.41,9.07,5.15,9-5.11-9-5.18Zm-.28,10.51,9.07,5.15,9-5.11-9-5.19Zm-17.55-.21,9.07,5.15,9-5.11-9-5.19Zm-.29,10.59,9.07,5.15,9-5.11-9-5.19Zm17.89-31.08,9.07,5.15,9-5.11-9-5.19Zm.19-10.58,9.07,5.15,9-5.11-9-5.19Zm-17.89,10.42,9.07,5.15,9-5.11-9-5.19Zm-.19,10.46,9.07,5.15,9-5.11-9-5.19Zm-17.65-.17,9.07,5.15,9-5.11-9-5.18Zm17.68-20.48,9.07,5.14,9-5.1-9-5.19Zm-17.89,10.41,9.07,5.15,9-5.11-9-5.19ZM178.77,585l9.07,5.15,9-5.11-9-5.19Zm17.86,10.32,9.07,5.15,9-5.11-9-5.19Z"/><polygon class="cls-26" points="170.22 569.16 179.24 574.34 187.62 569.5 179.14 564.01 170.22 569.16"/><polygon class="cls-26" points="142.82 532.96 151.85 538.23 160.66 533.11 151.63 527.71 142.82 532.96"/><polygon class="cls-26" points="575.04 470.58 584.07 475.85 592.88 470.73 583.84 465.33 575.04 470.58"/><polygon class="cls-26" points="583.96 454.99 592.99 460.25 601.8 455.13 592.76 449.73 583.96 454.99"/><polygon class="cls-26" points="413.07 470.58 422.09 475.85 430.9 470.73 421.87 465.33 413.07 470.58"/><polygon class="cls-26" points="404.15 496.56 413.17 501.83 421.99 496.71 412.95 491.31 404.15 496.56"/><polygon class="cls-26" points="440.02 486.15 449.05 491.41 457.86 486.29 448.83 480.89 440.02 486.15"/><polygon class="cls-26" points="440.02 507.08 449.05 512.35 457.86 507.23 448.83 501.83 440.02 507.08"/><polygon class="cls-26" points="484.77 511.91 493.8 517.17 502.61 512.05 493.57 506.65 484.77 511.91"/><polygon class="cls-26" points="448.9 533.29 457.93 538.56 466.74 533.44 457.71 528.04 448.9 533.29"/><polygon class="cls-26" points="421.99 527.77 431.01 533.03 439.82 527.92 430.79 522.51 421.99 527.77"/><polygon class="cls-26" points="530.2 507.08 539.23 512.35 548.04 507.23 539 501.83 530.2 507.08"/><polygon class="cls-26" points="530.2 496.56 539.23 501.83 548.04 496.71 539 491.31 530.2 496.56"/><polygon class="cls-26" points="539.18 471.26 548.2 476.53 557.01 471.41 547.98 466.01 539.18 471.26"/><polygon class="cls-26" points="368.11 569.28 377.14 574.54 385.95 569.42 376.92 564.02 368.11 569.28"/><polygon class="cls-26" points="385.95 569.44 394.98 574.71 403.79 569.59 394.75 564.18 385.95 569.44"/><polygon class="cls-26" points="340.75 605.55 349.78 610.81 358.59 605.7 349.56 600.29 340.75 605.55"/><polygon class="cls-26" points="349.67 600.6 358.7 605.86 367.51 600.74 358.48 595.34 349.67 600.6"/><polygon class="cls-26" points="377.03 595.35 386.06 600.61 394.87 595.49 385.84 590.09 377.03 595.35"/><polygon class="cls-26" points="403.75 548.49 412.78 553.76 421.59 548.64 412.56 543.24 403.75 548.49"/><polygon class="cls-26" points="412.67 553.82 421.7 559.08 430.51 553.97 421.48 548.56 412.67 553.82"/><polygon class="cls-26" points="448.9 553.58 457.93 558.84 466.74 553.72 457.71 548.32 448.9 553.58"/><polygon class="cls-26" points="646.63 439.35 655.66 444.61 664.47 439.49 655.44 434.09 646.63 439.35"/><polygon class="cls-26" points="619.88 444.61 628.9 449.87 637.72 444.75 628.68 439.35 619.88 444.61"/><polygon class="cls-26" points="592.88 408.3 601.9 413.57 610.72 408.45 601.68 403.04 592.88 408.3"/><polygon class="cls-26" points="592.88 397.87 601.9 403.13 610.72 398.01 601.68 392.61 592.88 397.87"/><polygon class="cls-26" points="548.04 392.61 557.07 397.87 565.88 392.75 556.84 387.35 548.04 392.61"/><polygon class="cls-26" points="539.12 377.04 548.15 382.3 556.96 377.18 547.92 371.78 539.12 377.04"/><polygon class="cls-26" points="511.8 351.08 520.82 356.35 529.63 351.23 520.6 345.82 511.8 351.08"/><polygon class="cls-26" points="521.28 356.34 530.31 361.61 539.12 356.49 530.09 351.08 521.28 356.34"/><polygon class="cls-26" points="557.2 428.83 566.23 434.09 575.04 428.97 566 423.57 557.2 428.83"/><polygon class="cls-26" points="566.12 423.86 575.15 429.13 583.96 424.01 574.92 418.61 566.12 423.86"/><polygon class="cls-26" points="124.9 502 133.93 507.26 142.74 502.15 133.71 496.74 124.9 502"/><polygon class="cls-26" points="115.98 444.4 125.01 449.67 133.82 444.55 124.79 439.14 115.98 444.4"/><polygon class="cls-26" points="107.07 501.67 116.09 506.94 124.9 501.82 115.87 496.41 107.07 501.67"/><polygon class="cls-26" points="61.99 506.97 71.21 512.04 79.99 506.97 70.99 501.83 61.99 506.97"/><polygon class="cls-26" points="98.07 538.22 107.29 543.29 116.07 538.22 107.07 533.07 98.07 538.22"/><polygon class="cls-68" points="115.9 506.97 125.12 512.04 133.9 506.97 124.9 501.83 115.9 506.97"/><polygon class="cls-68" points="160.66 532.92 169.88 537.99 178.66 532.92 169.66 527.77 160.66 532.92"/><polygon class="cls-68" points="574.96 460.29 584.18 465.36 592.96 460.29 583.96 455.14 574.96 460.29"/><polygon class="cls-68" points="484.69 522.57 493.91 527.64 502.69 522.57 493.69 517.43 484.69 522.57"/><polygon class="cls-68" points="431.02 491.58 440.25 496.65 449.02 491.58 440.02 486.44 431.02 491.58"/><polygon class="cls-68" points="376.87 574.77 386.09 579.84 394.87 574.77 385.87 569.63 376.87 574.77"/><polygon class="cls-68" points="583.88 403.17 593.1 408.24 601.88 403.17 592.88 398.02 583.88 403.17"/><polygon class="cls-68" points="520.63 366.56 529.86 371.63 538.63 366.56 529.63 361.42 520.63 366.56"/><polygon class="cls-26" points="88.87 470.59 98.15 476.2 106.95 470.59 97.91 465.51 88.87 470.59"/><polygon class="cls-26" points="52.99 480.96 61.82 486.25 70.99 480.96 62.26 475.61 52.99 480.96"/><polygon class="cls-68" points="52.99 491.48 61.82 496.77 70.99 491.48 62.26 486.12 52.99 491.48"/><polygon class="cls-30" points="638 442.17 657.35 454.03 657.35 464.54 673.39 474.14 680.96 469.71 664.86 460.25 664.47 450.08 646.63 439.35 638 442.17"/><path class="cls-69" d="M614.21,489.4,614.06,479,596.2,468.79l-26.74-15.17-29.68-46.74-39.52-62.22c9.51-15.17,17.5-28.42,25.17-40.37,27.54-42.91,22.39-88.36,22.39-88.36l-9.23,5.34-8.77-5.13V185l15-8.85c-21.81-67.69-124.09-.83-124.09-.83L313.71,236.84l.22,363.81,45,25.75v10.08l53.84,31.65,255.3-147.85ZM386,257.81l45.24-26.27c16.27-9.51,30.11,3.55,34.73,9,7.38,9.24,7.27,26.54,4.89,38-2.87,13.75-15.35,43-35.24,54.27-11,6.55-49.62,28.68-49.62,28.68Zm18,270-.3-42,.08-61.93,27.08-15.53,31.78,43.95,4.07,28Z"/><path class="cls-8" d="M647.22,350.76h-10v90h0a.36.36,0,0,0,0,.1c0,1.34,2.23,2.43,5,2.43s5-1.09,5-2.43a.38.38,0,0,0,0-.1h0Z"/><path class="cls-25" d="M638.48,388.89s19.33,5.54,24.06,4.16,22.64-7.26,26.11-14.66,13.2-19.74,22.93-24.62,15.31-10.7,13.21-20.41S722.33,312.83,715,306s-.53-16.18-3.47-25.47c-3-9.64-5.14-11.33.08-21.63s8.19-23.9,2.33-34.44-11.56-18.5-17.17-20.13-17.83-7.74-20.84-5.56-14.58,6.83-14.94,15-2.71,17.07,3.56,25.26,10.82,11,10.47,17.82-11.92,16.67-22.09,25.61-17.65,15.87-19.17,22.22-3.3,17.23-.66,22.84,10.36,19.29,10.18,20.69,1.44,5.26.63,11.58-11,25.13-10.81,26.24S638.48,388.89,638.48,388.89Z"/><path class="cls-26" d="M615.22,393.62s-29.91-16.93-33.6-37.95-4.57-66.55,1-75.31,15.11-26.83,30.3-37.28,19.5-18.85,15.5-35.23-10.94-14.66-.46-36.76,7.89-25.62,15.77-29c6.59-2.83,27.72-7.91,30.54,6.32s16.2,37.41,19,53.39-16.82,50.95-9.07,56,15,12.8,17.36,24.15,1.45,22.66,0,25.86S690.18,325,681.69,329.4s3.59,12.18-.84,24.6-21.71,12.48-21.68,20.87,4.82,10.73-6.9,18.75S615.22,393.62,615.22,393.62Z"/><path class="cls-2" d="M654.94,364.68s1.09,24.51-30.23,23.13c-56.33-2.47-69.22-27-67.27-57.39s8.73-80.81,33.18-95.75,11.44-62,17.8-69.66,26.91-45.82,44.08-48.12,12.75,1.61,24.63,16-.92,17.54-6.93,38.51,19.39,24.22,4.06,41.06-16.13,33-13.22,45.25-21.33,35.87-15.92,44.05,14.24,18.8,16.43,32.29S654.94,364.68,654.94,364.68Z"/><path class="cls-64" d="M638.85,401.84a49.5,49.5,0,0,0,5.84,2.43l.89,2.3"/><path class="cls-64" d="M637.88,408a6.74,6.74,0,0,0,3.54,0l1.05,3.65"/><path class="cls-64" d="M639.93,417.82c1.91.53,5.38-1.09,5.38-1.09l1.05,3.65"/><path class="cls-26" d="M581.38,348.13c.39,3.66,7,7.21,7,7.21L581,361.41"/><path class="cls-26" d="M606.16,252.41c3.41-1.56,6.43-8.14,6.43-8.14l6,4"/><path class="cls-26" d="M626,283.76c3-.94,6.3-6.12,6.3-6.12l4.58,4"/><path class="cls-26" d="M621.81,178.61c1.66,3.52,8.46,6.73,8.46,6.73l-4,6.12"/><path class="cls-26" d="M637.56,154.41c4.38-1,7.84-9.45,7.84-9.45l8.24,7.83"/><path class="cls-26" d="M650.66,205.43c1.91,3.47,10.12,3.44,10.12,3.44L655.7,219"/><path class="cls-26" d="M618.39,316c-4.68-.23-11.5,5.91-11.5,5.91l-4.79-8.6"/><path class="cls-26" d="M622.43,371.18c4.19,2.07,13,0,13,0l.84,8.73"/><path class="cls-26" d="M635.1,347c1.41-3.32.4-10.06.4-10.06l5.4-.93"/><path class="cls-26" d="M573.08,297.94c3.7,1.07,10.43-2.17,10.43-2.17l2,7.3"/><path class="cls-64" d="M637.72,428.52c1.9.53,3.72-3.32,3.72-3.32l2.1,2.73"/><path class="cls-64" d="M640.88,435.68c1.9.54,4.27-2.68,4.27-2.68l1.05,3.66"/><path class="cls-64" d="M639.59,398.77a15.74,15.74,0,0,0,5.34-.1L646,400"/><path class="cls-64" d="M638,439.74a4,4,0,0,0,3.47-.92l.75,3.06"/></g></g></svg>